<svg width="114" height="32" viewBox="0 0 114 32" fill="none" xmlns="http://www.w3.org/2000/svg">
<path d="M15.3523 29.8656L22.7421 17.0656C23.9197 15.024 23.2221 12.4149 21.1805 11.2373C19.1389 10.0597 16.5299 10.7573 15.3523 12.7989L7.9624 25.5989L15.3523 29.8656Z" fill="#FFC658"/>
<path d="M15.352 25.5989L7.96215 12.7989C6.78455 10.7573 4.17548 10.0597 2.13389 11.2373C0.0922879 12.4149 -0.605312 15.024 0.572288 17.0656L7.96215 29.8656C9.13975 31.9072 11.7488 32.6048 13.7904 31.4272C15.832 30.2496 16.5296 27.6405 15.352 25.5989Z" fill="#101820"/>
<path d="M19.0469 19.2013C21.4033 19.2013 23.3136 17.291 23.3136 14.9346C23.3136 12.5782 21.4033 10.668 19.0469 10.668C16.6905 10.668 14.7803 12.5782 14.7803 14.9346C14.7803 17.291 16.6905 19.2013 19.0469 19.2013Z" fill="#FE5000"/>
<path d="M29.7802 13.282C31.058 11.8953 32.9546 10.9844 35.2159 10.9844C40.5065 10.9844 43.8623 14.9972 43.8623 20.2516V29.9198C43.8623 31.234 43.0601 31.9998 41.7823 31.9998C40.5791 31.9998 39.7023 31.234 39.7023 29.9198V20.2516C39.7023 17.4057 37.9508 15.1444 34.9962 15.1444C32.0415 15.1444 30.0703 17.3694 30.0703 20.2516V29.9198C30.0703 31.234 29.2682 31.9998 27.954 31.9998C26.7871 31.9998 25.874 31.234 25.874 29.9198V13.282C25.874 12.1513 26.6762 11.458 27.6618 11.458C28.865 11.458 29.5583 12.0425 29.778 13.282H29.7802Z" fill="#101820"/>
<path d="M56.4483 10.668C50.2317 10.668 45.2589 15.9864 45.8264 22.3202C46.3 27.5874 50.6669 31.7474 55.9491 31.9885C58.8525 32.1208 61.5149 31.0904 63.5117 29.3261C64.9795 28.0269 64.0472 25.6013 62.0888 25.6013C61.5661 25.6013 61.0648 25.7976 60.6723 26.1432C59.5459 27.133 58.0696 27.7346 56.4504 27.7346C53.6643 27.7346 51.2941 25.9533 50.4152 23.468H64.9816C66.1635 23.468 67.1171 22.508 67.1171 21.3282C67.1171 21.2792 67.1171 21.2322 67.1171 21.1832C67.0339 15.3272 62.3085 10.668 56.4504 10.668H56.4483ZM50.4152 19.2013C51.2941 16.716 53.6643 14.9346 56.4504 14.9346C59.2365 14.9346 61.6067 16.716 62.4856 19.2013H50.4173H50.4152Z" fill="#101820"/>
<path d="M79.7032 10.668C73.4866 10.668 68.5138 15.9864 69.0813 22.3202C69.5549 27.5874 73.9218 31.7474 79.204 31.9885C82.1074 32.1208 84.7698 31.0904 86.7666 29.3261C88.2343 28.0269 87.3021 25.6013 85.3437 25.6013C84.821 25.6013 84.3197 25.7976 83.9272 26.1432C82.8008 27.133 81.3245 27.7346 79.7053 27.7346C76.9192 27.7346 74.549 25.9533 73.6701 23.468H88.2365C89.4183 23.468 90.372 22.508 90.372 21.3282C90.372 21.2792 90.372 21.2322 90.372 21.1832C90.2887 15.3272 85.5634 10.668 79.7053 10.668H79.7032ZM73.6701 19.2013C74.549 16.716 76.9192 14.9346 79.7053 14.9346C82.4914 14.9346 84.8616 16.716 85.7405 19.2013H73.6722H73.6701Z" fill="#101820"/>
<path d="M111.492 0C110.314 0 109.359 0.955733 109.359 2.13333V12.8C107.575 11.4603 105.361 10.6667 102.959 10.6667C97.0685 10.6667 92.292 15.4432 92.292 21.3333C92.292 27.2234 97.0685 32 102.959 32C105.361 32 107.575 31.2064 109.359 29.8666C109.359 31.0464 110.314 32 111.492 32C112.67 32 113.625 31.0442 113.625 29.8666V2.13333C113.625 0.955733 112.67 0 111.492 0ZM102.959 27.7333C99.4237 27.7333 96.5587 24.8682 96.5587 21.3333C96.5587 17.7984 99.4237 14.9333 102.959 14.9333C106.494 14.9333 109.359 17.7984 109.359 21.3333C109.359 24.8682 106.494 27.7333 102.959 27.7333Z" fill="#101820"/>
</svg>
